<?xml version="1.0" standalone="no"?>
<!DOCTYPE svg PUBLIC "-//W3C//DTD SVG 20010904//EN"
 "http://www.w3.org/TR/2001/REC-SVG-20010904/DTD/svg10.dtd">
<svg version="1.0" xmlns="http://www.w3.org/2000/svg"
 width="1402.000000pt" height="340.000000pt" viewBox="0 0 1402.000000 340.000000"
 preserveAspectRatio="xMidYMid meet">

<g transform="translate(0.000000,340.000000) scale(0.100000,-0.100000)"
fill="#000000" stroke="none">
<path d="M8395 3100 c-12 -19 5 -48 32 -55 19 -4 23 -9 14 -18 -7 -7 -11 -49
-11 -109 0 -85 -2 -100 -17 -105 -10 -4 -23 -12 -30 -19 -23 -22 8 -34 89 -34
45 0 78 -4 78 -10 0 -5 7 -10 15 -10 8 0 15 5 15 10 0 6 7 10 15 10 8 0 15 -4
15 -10 0 -5 7 -10 15 -10 8 0 15 5 15 10 0 6 12 10 26 10 14 0 37 10 50 23 31
29 34 99 4 124 -23 20 -26 43 -6 43 15 0 26 30 26 75 0 49 -31 67 -130 76
-123 11 -208 10 -215 -1z m233 -56 c28 -8 32 -62 5 -70 -10 -3 -26 -10 -35
-15 -10 -5 -31 -9 -47 -9 -26 0 -31 4 -37 35 -10 53 -1 65 48 65 24 0 53 -3
66 -6z m-8 -143 c0 -5 9 -11 20 -14 29 -7 35 -34 14 -58 -15 -16 -28 -19 -78
-17 l-61 3 -3 33 c-2 18 2 40 9 48 12 15 99 20 99 5z"/>
<path d="M8543 2705 c-9 -9 -13 -68 -15 -187 -2 -120 -6 -163 -12 -140 -7 25
-14 32 -32 32 -18 0 -24 -6 -24 -21 0 -23 33 -82 62 -111 19 -19 68 -25 68 -8
0 6 18 28 41 49 26 26 41 50 42 68 3 39 -22 37 -48 -4 -41 -65 -47 -47 -45
140 1 94 1 178 1 185 -1 16 -23 15 -38 -3z"/>
<path d="M5868 2363 c-9 -10 -19 -33 -23 -50 -3 -18 -10 -33 -15 -33 -5 0 -11
-14 -15 -30 -4 -17 -17 -51 -31 -76 -13 -25 -24 -52 -24 -60 0 -9 -9 -18 -20
-21 -11 -3 -20 -9 -20 -14 0 -5 -7 -9 -16 -9 -9 0 -14 -7 -12 -17 3 -15 16
-18 81 -21 66 -2 77 0 77 13 0 9 -9 24 -21 33 -13 11 -18 23 -14 35 9 23 91
24 116 1 19 -17 15 -44 -6 -44 -7 0 -18 -6 -24 -14 -16 -20 6 -26 90 -26 54 0
71 4 76 16 3 9 -3 21 -16 30 -11 8 -21 22 -21 30 0 8 -4 14 -10 14 -5 0 -10 8
-10 18 0 10 -9 35 -19 56 -11 21 -23 51 -26 67 -4 16 -11 29 -16 29 -5 0 -9
10 -9 23 0 27 -26 67 -44 67 -7 0 -20 -8 -28 -17z m22 -128 c0 -8 5 -15 10
-15 6 0 10 -9 10 -20 0 -21 -24 -27 -47 -12 -10 7 -10 14 0 35 13 29 27 35 27
12z"/>
<path d="M800 2308 c0 -9 7 -19 16 -22 9 -3 364 -6 789 -6 481 0 776 -4 780
-10 3 -5 196 -9 497 -10 270 0 510 -3 532 -6 44 -6 106 -33 106 -46 0 -5 7 -8
15 -8 9 0 19 -8 22 -17 4 -10 13 -24 20 -31 7 -7 13 -22 13 -33 0 -10 4 -19 9
-19 5 0 12 -19 16 -42 4 -24 15 -57 24 -74 25 -46 85 -104 109 -104 11 0 22
-6 24 -12 3 -9 41 -14 126 -17 l122 -3 0 -67 c0 -39 -5 -72 -12 -79 -17 -17
-165 -16 -171 1 -3 9 -7 9 -18 1 -8 -6 -35 -15 -61 -18 -27 -4 -48 -10 -48
-14 0 -4 -14 -15 -30 -24 -17 -9 -30 -24 -30 -31 0 -8 -6 -17 -14 -20 -8 -3
-17 -19 -21 -36 -4 -17 -11 -31 -15 -31 -5 0 -12 -22 -16 -50 -4 -27 -10 -50
-15 -50 -5 0 -9 -6 -9 -14 0 -19 -57 -76 -76 -76 -8 0 -14 -4 -14 -9 0 -35
-153 -36 -2330 -17 -311 2 -340 1 -340 -16 0 -37 -18 -36 1355 -40 1056 -2
1329 0 1332 10 3 6 10 12 17 12 18 0 93 81 116 124 10 21 22 59 26 85 6 46 51
107 99 134 29 17 247 25 263 10 16 -15 16 -40 -1 -47 -9 -5 -9 -7 1 -12 6 -3
12 -12 12 -20 0 -12 51 -14 320 -14 l320 0 0 44 c0 26 5 45 13 48 12 4 1687
-5 2322 -13 l350 -4 3 -30 c1 -16 5 -40 7 -52 l5 -23 296 0 c323 0 324 0 324
57 0 16 5 34 12 41 17 17 252 17 266 -1 6 -7 12 -32 14 -57 l3 -44 90 0 90 -1
3 -127 3 -128 -46 0 -45 0 -1 -112 c0 -62 -1 -183 -2 -268 l-2 -155 215 0 215
0 7 47 c5 26 7 146 6 265 l-3 218 -53 3 -53 3 3 127 3 127 95 0 95 0 3 40 c2
22 9 43 15 47 7 4 65 8 130 8 l117 0 0 -30 c0 -16 8 -39 17 -50 17 -19 29 -20
324 -20 260 0 308 2 319 15 9 10 9 15 1 15 -6 0 -11 13 -11 30 0 24 5 31 26
36 44 11 157 -3 198 -25 47 -25 96 -70 96 -88 0 -7 4 -13 9 -13 5 0 12 -28 16
-62 4 -35 11 -67 15 -73 4 -5 11 -23 15 -40 9 -37 96 -115 130 -115 13 0 25
-4 27 -9 2 -5 431 -12 1038 -16 569 -4 1036 -12 1038 -16 2 -5 163 -9 357 -9
363 0 379 2 356 38 -5 8 -244 13 -876 18 -485 3 -879 10 -890 15 -11 5 -244
10 -518 11 -353 2 -500 6 -505 14 -4 6 -18 15 -30 19 -32 9 -60 39 -68 70 -3
14 -10 25 -14 25 -5 0 -12 21 -15 48 -4 26 -10 56 -15 67 -5 11 -12 30 -15 43
-10 35 -100 122 -134 128 -17 4 -31 10 -31 15 0 5 -47 9 -105 9 l-105 0 0 66
c0 41 5 70 13 79 10 9 50 14 131 17 73 2 119 7 124 14 4 7 16 13 27 15 11 3
29 19 40 36 11 18 26 32 33 33 6 0 12 7 12 15 0 8 4 15 10 15 5 0 12 23 16 50
4 27 10 50 15 50 5 0 9 11 9 24 0 13 9 35 20 49 11 14 20 29 20 34 0 20 80 53
129 53 28 0 51 5 51 10 0 6 82 10 225 10 143 0 225 -4 225 -10 0 -5 7 -10 15
-10 8 0 15 5 15 10 0 6 14 10 30 10 17 0 30 -4 30 -10 0 -5 7 -10 15 -10 8 0
15 5 15 10 0 14 43 13 58 -2 9 -9 12 -9 12 0 0 14 27 16 32 2 4 -13 2008 -14
2021 -1 6 6 5 15 -5 24 -12 13 -211 15 -1418 18 -1116 3 -1404 1 -1407 -8 -3
-7 -11 -13 -18 -13 -20 0 -83 -57 -91 -83 -4 -12 -11 -25 -16 -28 -5 -3 -11
-23 -14 -45 -3 -21 -12 -53 -20 -71 -8 -17 -14 -36 -14 -42 0 -13 -36 -51 -49
-51 -5 0 -14 -7 -21 -15 -7 -8 -27 -17 -46 -21 -19 -3 -34 -10 -34 -15 0 -5
-38 -9 -85 -9 -69 0 -85 3 -85 15 0 8 -5 15 -12 15 -9 0 -9 3 0 12 14 14 16
48 3 48 -5 0 -11 7 -13 14 -2 13 -53 16 -309 20 -297 6 -306 5 -324 -14 -10
-11 -13 -20 -7 -20 7 0 12 -15 12 -35 l0 -35 -130 0 -130 0 0 85 c0 69 -3 85
-15 85 -8 0 -15 5 -15 10 0 6 -109 10 -306 10 -264 0 -308 -2 -321 -16 -12
-11 -13 -18 -4 -27 6 -6 11 -42 11 -79 l0 -69 -142 3 -143 3 -3 53 -3 52 -284
0 c-218 0 -284 3 -288 13 -3 9 -9 9 -23 1 -14 -8 -20 -25 -22 -63 l-3 -51
-740 0 c-486 0 -739 3 -739 10 0 7 -207 10 -600 10 l-600 0 0 55 0 55 -300 0
c-193 0 -300 4 -300 10 0 6 -13 10 -30 10 l-30 0 0 -60 c0 -69 16 -62 -145
-60 -67 1 -92 5 -98 16 -4 8 -14 14 -21 14 -15 0 -56 42 -56 58 0 7 -4 12 -9
12 -5 0 -12 20 -15 45 -4 25 -11 45 -16 45 -5 0 -12 16 -16 35 -3 19 -12 39
-20 46 -8 6 -14 15 -14 20 0 24 -94 89 -128 89 -11 0 -22 5 -24 11 -3 8 -385
12 -1331 16 -1193 6 -1327 5 -1327 -9z m6252 -482 c5 -8 13 -7 28 2 11 6 51
12 89 12 46 0 71 -4 74 -12 3 -10 9 -10 26 0 28 16 66 15 80 -2 11 -14 13
-123 3 -153 -5 -16 -502 -19 -502 -3 0 6 -9 10 -19 10 -11 0 -23 -4 -26 -10
-3 -5 -35 -10 -71 -10 -48 0 -64 3 -64 14 0 8 7 16 15 20 8 3 15 15 15 26 0
16 -7 20 -31 20 -40 0 -65 -23 -44 -40 27 -22 18 -40 -20 -40 -19 0 -35 5 -35
10 0 6 -20 10 -45 10 -25 0 -45 -4 -45 -10 0 -5 -9 -10 -20 -10 -11 0 -20 5
-20 10 0 6 -8 10 -17 11 -14 0 -13 2 5 9 12 5 22 13 22 18 0 16 -24 32 -48 32
-21 0 -24 -4 -20 -30 l5 -30 -114 0 c-69 0 -113 -4 -113 -10 0 -5 -6 -10 -14
-10 -16 0 -29 27 -20 41 3 5 2 18 -1 30 -5 15 -12 18 -28 13 -36 -11 -47 -27
-31 -44 11 -13 10 -17 -6 -28 -12 -7 -20 -8 -20 -2 0 6 -49 10 -127 10 -119 1
-126 2 -100 16 15 8 27 18 27 23 0 19 -29 31 -60 25 -29 -6 -31 -9 -26 -36 l6
-29 -538 2 c-295 1 -543 4 -549 7 -17 6 -17 134 -1 150 17 17 2369 5 2380 -12z
m1218 -85 c0 -44 -4 -81 -10 -83 -5 -1 -70 -2 -145 0 l-135 3 0 73 c0 40 3 76
7 79 3 4 69 7 145 7 l138 0 0 -79z m894 73 c23 -9 23 -149 0 -158 -9 -3 -67
-6 -130 -6 l-114 0 0 85 0 85 114 0 c63 0 121 -3 130 -6z m-516 -437 l3 -127
-71 0 -70 0 0 123 c0 68 3 127 7 130 3 4 33 5 67 3 l61 -3 3 -126z"/>
<path d="M4943 1804 c-3 -8 1 -23 10 -31 13 -13 19 -14 31 -3 9 7 16 21 16 31
0 24 -48 26 -57 3z"/>
<path d="M5315 1809 c-4 -5 1 -19 10 -29 17 -18 18 -18 37 0 11 10 17 23 13
29 -8 14 -52 14 -60 0z"/>
<path d="M5970 1789 c0 -16 4 -19 23 -13 31 9 34 14 17 24 -24 16 -40 11 -40
-11z"/>
<path d="M6256 1794 c-13 -34 -6 -44 28 -44 38 0 68 23 60 45 -8 21 -80 20
-88 -1z"/>
<path d="M6601 1801 c-11 -7 -9 -13 8 -30 28 -28 31 -27 31 9 0 30 -13 37 -39
21z"/>
<path d="M6880 1780 c0 -20 5 -30 15 -30 8 0 15 6 15 14 0 8 6 17 13 19 9 4 8
8 -3 16 -26 19 -40 12 -40 -19z"/>
<path d="M7260 1775 c0 -16 6 -25 15 -25 16 0 19 9 9 34 -9 25 -24 19 -24 -9z"/>
<path d="M4767 1772 c-30 -33 18 -58 50 -27 12 12 13 19 3 30 -17 20 -33 19
-53 -3z"/>
<path d="M5082 1768 c-29 -29 2 -55 52 -42 27 6 30 12 20 38 -7 19 -55 21 -72
4z"/>
<path d="M5462 1751 c-23 -14 -10 -46 21 -49 23 -3 27 0 27 21 0 14 -7 28 -16
31 -19 7 -16 8 -32 -3z"/>
<path d="M6808 1743 c-29 -7 -20 -23 12 -23 20 0 30 5 30 15 0 15 -9 17 -42 8z"/>
<path d="M7170 1705 c0 -8 7 -15 15 -15 8 0 15 7 15 15 0 8 -7 15 -15 15 -8 0
-15 -7 -15 -15z"/>
<path d="M699 2164 c-14 -16 -37 -51 -50 -77 -24 -49 -49 -65 -88 -52 -12 3
-21 12 -21 20 0 7 -6 20 -13 27 -7 7 -18 26 -25 41 -6 15 -20 30 -29 34 -10 4
-21 11 -25 17 -4 6 -12 5 -22 -3 -14 -12 -16 -53 -16 -322 0 -199 -4 -309 -10
-309 -5 0 -10 -9 -10 -20 0 -11 5 -20 10 -20 6 0 10 -20 10 -44 0 -25 4 -48
10 -51 11 -7 106 31 131 52 30 25 75 26 123 2 25 -12 46 -28 46 -34 0 -7 9
-20 19 -29 18 -16 95 -18 1093 -23 603 -3 1077 -9 1082 -14 14 -12 76 -11 76
1 0 6 43 10 110 10 67 0 110 -4 110 -10 0 -5 7 -10 15 -10 8 0 15 5 15 10 0 6
9 10 20 10 11 0 20 -4 20 -10 0 -5 11 -10 25 -10 14 0 25 4 25 9 0 6 20 13 45
17 25 3 45 10 45 15 0 5 6 9 14 9 20 0 85 75 91 107 4 16 10 36 16 45 11 22
12 388 0 388 -5 0 -11 22 -15 49 -3 27 -13 54 -21 61 -8 7 -15 18 -15 24 0 24
-92 86 -129 86 -11 0 -21 5 -23 11 -2 7 -387 12 -1308 16 l-1305 6 -26 -29z
m2600 -42 c3 -5 24 -12 45 -15 22 -4 42 -10 45 -15 3 -5 14 -11 24 -15 9 -4
20 -15 24 -24 4 -10 13 -24 20 -31 7 -7 13 -23 13 -36 0 -12 4 -26 10 -32 14
-14 16 -407 1 -412 -6 -2 -11 -11 -11 -20 0 -19 -39 -62 -56 -62 -6 0 -14 -7
-18 -15 -3 -8 -12 -15 -21 -15 -8 0 -15 -4 -15 -10 0 -7 -215 -10 -625 -10
-410 0 -625 3 -625 10 0 15 -60 12 -61 -2 0 -10 -2 -10 -6 0 -6 15 -129 17
-138 2 -3 -5 -22 -10 -41 -10 -19 0 -34 5 -34 10 0 7 -184 10 -533 10 l-533 0
-11 30 c-6 16 -20 33 -30 37 -10 3 -21 11 -25 17 -4 6 -40 11 -82 11 -68 0
-76 -2 -100 -27 -26 -29 -61 -37 -67 -15 -2 6 -3 148 -1 315 2 278 10 351 27
272 4 -16 10 -30 15 -30 4 0 10 -9 13 -20 3 -11 12 -20 21 -20 9 0 16 -4 16
-10 0 -5 21 -10 47 -10 47 0 83 20 83 47 0 7 4 13 9 13 5 0 12 12 15 26 4 14
19 37 34 51 l27 25 1269 -6 c715 -3 1272 -9 1275 -14z"/>
<path d="M1771 1981 c-38 -22 -60 -59 -64 -105 -2 -30 -1 -31 43 -31 41 0 46
3 59 33 12 26 20 32 47 32 35 0 44 -13 44 -66 0 -20 -7 -40 -17 -49 -76 -65
-101 -85 -107 -85 -10 0 -36 -27 -36 -36 0 -4 -6 -15 -14 -23 -8 -9 -17 -33
-21 -53 l-7 -38 155 0 c129 0 157 3 168 16 9 11 10 20 2 32 -8 13 -29 18 -97
20 -47 1 -86 6 -86 11 0 12 45 51 58 51 7 0 15 7 18 15 4 8 12 15 19 15 7 0
27 16 45 37 30 34 32 39 28 103 -3 60 -7 70 -36 100 -30 29 -40 33 -100 36
-53 3 -74 0 -101 -15z"/>
<path d="M10954 2141 c-5 -6 -115 -11 -244 -13 -215 -3 -237 -5 -265 -23 -49
-33 -94 -84 -101 -113 -4 -15 -12 -33 -18 -41 -7 -9 -11 -89 -11 -240 0 -218
1 -228 24 -274 14 -28 33 -52 47 -57 13 -5 24 -14 24 -20 0 -5 12 -13 28 -16
15 -4 30 -12 34 -18 5 -8 142 -12 445 -14 257 -2 442 -7 447 -13 14 -13 53
-11 62 2 4 8 9 8 13 1 4 -7 280 -11 855 -13 813 -2 850 -1 863 16 7 11 13 29
13 42 0 13 4 23 9 23 5 0 11 9 14 19 4 15 18 21 71 26 36 4 72 5 79 2 8 -3 17
-28 21 -59 10 -73 43 -108 103 -108 l43 0 0 305 c0 197 4 305 10 305 6 0 10
11 10 25 0 14 -4 25 -10 25 -5 0 -10 7 -10 15 0 8 5 15 10 15 6 0 10 14 10 30
0 17 -4 30 -10 30 -5 0 -10 14 -10 30 0 17 5 30 10 30 19 0 10 37 -13 49 -18
10 -28 9 -48 -1 -43 -23 -59 -45 -65 -92 -4 -25 -10 -46 -15 -46 -4 0 -9 -15
-11 -32 -3 -33 -3 -33 -53 -30 -47 4 -95 31 -95 54 0 9 -2 13 -50 69 -16 20
-30 41 -30 46 0 5 -8 16 -18 24 -17 14 -138 17 -1082 23 -676 4 -1066 10
-1070 16 -4 6 -10 6 -16 1z m431 -66 c402 -3 952 -5 1223 -5 433 0 492 -2 492
-15 0 -21 50 -115 61 -115 5 0 9 -5 9 -12 0 -16 41 -58 57 -58 7 0 13 -4 13
-10 0 -6 35 -10 85 -10 80 0 85 1 89 23 3 12 10 51 17 87 15 79 17 84 35 69
16 -13 19 -95 4 -104 -6 -4 -10 -118 -10 -311 0 -167 -3 -304 -7 -304 -22 1
-32 21 -38 75 -11 87 -30 105 -116 105 -103 0 -151 -35 -183 -134 -6 -18 -39
-18 -1269 -11 -694 4 -1266 11 -1272 15 -5 4 -30 10 -55 13 -24 3 -46 11 -48
16 -2 6 -8 11 -14 11 -22 0 -79 71 -85 105 -3 20 -10 38 -14 41 -12 7 -12 281
0 288 4 3 11 32 15 65 4 33 13 65 21 71 8 7 15 16 15 21 0 12 32 49 43 49 5 0
15 7 23 15 9 8 24 15 35 15 10 0 19 4 19 10 0 5 26 7 63 5 34 -3 391 -7 792
-10z"/>
<path d="M11630 1951 c0 -5 -9 -11 -20 -14 -11 -3 -20 -12 -20 -21 0 -9 -7
-16 -15 -16 -8 0 -15 -4 -15 -10 0 -5 -11 -10 -24 -10 -42 0 -56 -11 -56 -41
0 -28 2 -29 48 -29 26 0 53 -5 60 -12 8 -8 12 -53 12 -138 0 -132 5 -150 45
-150 42 0 45 14 45 227 0 174 -2 203 -15 203 -8 0 -15 5 -15 10 0 6 -7 10 -15
10 -8 0 -15 -4 -15 -9z"/>
<path d="M5841 1493 c-21 -8 -48 -39 -56 -62 -3 -12 -11 -21 -16 -21 -5 0 -9
-13 -9 -30 0 -25 4 -30 24 -30 19 0 26 7 31 30 4 17 13 30 21 30 12 0 14 -29
11 -169 -1 -93 1 -172 5 -176 3 -4 16 -4 27 0 20 6 21 15 23 178 2 118 6 166
12 152 6 -11 18 -29 28 -40 17 -18 19 -18 36 -2 11 12 13 20 6 25 -6 4 -14 14
-18 22 -39 83 -78 112 -125 93z"/>
<path d="M8514 596 c-6 -7 -15 -23 -19 -37 -4 -13 -16 -32 -26 -42 -21 -20
-24 -44 -9 -67 9 -13 12 -13 21 3 5 9 17 17 24 17 13 0 15 -29 15 -175 l0
-175 25 0 25 0 2 193 c2 130 6 186 12 172 14 -29 32 -45 51 -45 23 0 30 28 11
49 -9 10 -16 23 -16 29 0 7 -4 12 -10 12 -5 0 -13 12 -16 27 -4 15 -13 33 -20
40 -16 17 -56 16 -70 -1z"/>
<!-- 
<path d="M0 324 l0 -48 20 22 c23 25 46 27 102 10 27 -8 40 -18 44 -35 4 -12
10 -23 15 -23 5 0 9 -6 9 -14 0 -24 20 -29 41 -10 16 15 19 28 17 78 -3 55 -5
61 -26 64 -13 2 -25 -3 -28 -13 -5 -12 -9 -13 -21 -4 -8 7 -50 14 -94 17 l-79
5 0 -49z"/>


-->
</g>
</svg>
